<svg xmlns="http://www.w3.org/2000/svg" viewBox="0 0 960 640" role="img"><defs><linearGradient id="s" x2="0" y2="1"><stop stop-color="#b9a084"/><stop offset="1" stop-color="#f3c88e"/></linearGradient><pattern id="grain" width="9" height="9" patternUnits="userSpaceOnUse"><circle cx="2" cy="4" r=".7" fill="#35261e" opacity=".13"/></pattern></defs><rect width="960" height="640" fill="url(#s)"/><circle cx="720" cy="150" r="88" fill="#f6dc9e"/><path d="M0 410Q180 330 360 405T720 375T960 390V640H0Z" fill="#987553"/><path d="M0 510Q200 450 450 520T960 485V640H0Z" fill="#453b35" opacity=".32"/><path d="M0 420h960v220H0z" fill="#76664f"/><path d="M0 515h960M0 565h960" stroke="#332f2a" stroke-width="7"/><path d="M80 440h780v95H80z" fill="#a94b35"/><path d="M100 385h740v55H100z" fill="#d3a04c"/><g fill="#344c54"><rect x="115" y="450" width="57" height="48" rx="4"/><rect x="194" y="450" width="57" height="48" rx="4"/><rect x="273" y="450" width="57" height="48" rx="4"/><rect x="352" y="450" width="57" height="48" rx="4"/><rect x="431" y="450" width="57" height="48" rx="4"/><rect x="510" y="450" width="57" height="48" rx="4"/><rect x="589" y="450" width="57" height="48" rx="4"/><rect x="668" y="450" width="57" height="48" rx="4"/><rect x="747" y="450" width="57" height="48" rx="4"/></g><path d="M0 350h960" stroke="#594b3b" stroke-width="9"/><path d="M90 350V210h170v140M700 350V180h150v170" fill="none" stroke="#594b3b" stroke-width="20"/><rect width="960" height="640" fill="url(#grain)"/></svg>